<?xml version="1.0" encoding="utf-8"?>
<!-- Generator: Adobe Illustrator 16.0.0, SVG Export Plug-In . SVG Version: 6.00 Build 0)  -->
<!DOCTYPE svg PUBLIC "-//W3C//DTD SVG 1.1//EN" "http://www.w3.org/Graphics/SVG/1.1/DTD/svg11.dtd">
<svg version="1.1" xmlns="http://www.w3.org/2000/svg" xmlns:xlink="http://www.w3.org/1999/xlink" x="0px" y="0px"
	 width="898.905px" height="764.399px" viewBox="0 0 898.905 764.399" enable-background="new 0 0 898.905 764.399"
	 xml:space="preserve">
<g id="Layer_1">
	<rect x="-0.102" y="1.399" fill="#1B1464" width="899" height="763"/>
</g>
<g id="Layer_2">
	<g>
		<path fill="#FFF200" d="M173.193,430.246h7.943l15.808,55.762l22.183-55.762h1.604l21.926,55.762l16.076-55.762h7.886
			l-22.236,77.382h-1.436l-22.962-58.55l-23.41,58.55h-1.444L173.193,430.246z"/>
		<path fill="#FFF200" d="M281.033,430.246h44.346v7.577h-36.613v24.25h36.298v7.573h-36.298v30.408h36.298v7.573h-44.03V430.246z"
			/>
		<path fill="#FFF200" d="M347.577,457.18l-4.049-2.313c1.331-2.666,2.226-4.753,2.684-6.26c0.455-1.51,0.787-3.455,0.999-5.84
			h-4.63v-14.466h9.521v9.047c0,4.524-0.306,8.076-0.92,10.653C350.568,450.578,349.366,453.639,347.577,457.18z"/>
		<path fill="#FFF200" d="M376.564,0h7.73v500.159h29.776v7.469h-37.507V0z"/>
		<path fill="#FFF200" d="M426.328,430.246h7.732v69.913h29.774v7.469h-37.507V430.246z"/>
	</g>
	<g>
		<path fill="#00AAAD" d="M391.149,397.173v-9.788c0-3.937,0.467-6.963,1.401-9.077c0.933-2.115,2.367-3.785,4.303-5.012
			c1.935-1.225,4.082-1.839,6.445-1.839c2.204,0,4.212,0.538,6.023,1.613c1.811,1.073,3.279,2.652,4.404,4.733
			c0.876-2.578,1.906-4.563,3.087-5.954c1.182-1.392,2.61-2.473,4.286-3.247s3.492-1.16,5.45-1.16c3.982,0,7.351,1.456,10.106,4.37
			c2.756,2.912,4.134,6.822,4.134,11.726v13.635H391.149z M396.009,392.313h15.894v-2.841c0-3.449-0.32-5.985-0.962-7.609
			c-0.641-1.623-1.653-2.907-3.036-3.854c-1.384-0.946-2.919-1.421-4.606-1.421c-2.272,0-4.056,0.795-5.349,2.385
			c-1.294,1.59-1.94,4.12-1.94,7.593V392.313z M416.897,392.313h19.033v-6.152c0-3.629-0.354-6.287-1.063-7.978
			c-0.709-1.689-1.817-3.049-3.324-4.075c-1.508-1.022-3.139-1.536-4.894-1.536c-2.205,0-4.128,0.72-5.771,2.162
			c-1.642,1.441-2.767,3.423-3.374,5.946c-0.406,1.69-0.608,4.632-0.608,8.827V392.313z"/>
		<path fill="#00AAAD" d="M391.149,357.352v-9.888c0-5.512,0.225-9.246,0.677-11.204c0.676-2.946,2.123-5.342,4.34-7.188
			c2.221-1.845,4.952-2.767,8.196-2.767c2.702,0,5.08,0.635,7.129,1.906c2.05,1.271,3.598,3.088,4.646,5.449
			c1.049,2.363,1.582,5.626,1.604,9.788l23.049-17.852v6.135l-23.049,17.854v2.806h23.049v4.96H391.149z M396.009,352.392h16.872
			l0.067-8.552c0-3.313-0.314-5.763-0.945-7.351c-0.629-1.59-1.636-2.829-3.02-3.719c-1.384-0.892-2.93-1.335-4.64-1.335
			c-1.665,0-3.178,0.449-4.54,1.352c-1.359,0.901-2.333,2.084-2.918,3.549s-0.877,3.898-0.877,7.3V352.392z"/>
		<path fill="#00AAAD" d="M391.149,316.384v-4.961h507.203v4.961H391.149z"/>
		<path fill="#00AAAD" d="M440.79,300.018h-49.641v-1.08l38.053-33.037l-429.304-2.447v-4.894l440.892,2.447v1.113l-37.589,32.768
			h37.589V300.018z"/>
		<path fill="#00AAAD" d="M399.484,201.04l3.645,3.847c-2.722,2.768-4.786,5.799-6.191,9.095c-1.406,3.296-2.109,6.508-2.109,9.635
			c0,3.892,0.956,7.599,2.868,11.118c1.912,3.521,4.505,6.25,7.778,8.185c3.274,1.935,6.732,2.901,10.377,2.901
			c3.734,0,7.283-1,10.646-3.003c3.363-2.002,6.008-4.77,7.931-8.301c1.924-3.533,2.886-7.402,2.886-11.609
			c0-5.107-1.44-9.426-4.319-12.958c-2.88-3.532-6.615-5.624-11.204-6.277V219.5h-4.792v-21.396
			c7.672,0.045,13.763,2.323,18.273,6.833s6.767,10.546,6.767,18.105c0,9.179-3.127,16.445-9.382,21.8
			c-4.814,4.116-10.383,6.175-16.704,6.175c-4.702,0-9.078-1.181-13.128-3.543c-4.049-2.362-7.215-5.602-9.499-9.719
			c-2.283-4.117-3.425-8.773-3.425-13.972c0-4.207,0.76-8.166,2.277-11.878C393.698,208.194,396.132,204.572,399.484,201.04z"/>
	</g>
	<g>
		<path fill="#86328C" d="M468.155,765.603V251.509h1.096l33.52,37.045v-38.26h4.966v49.539h-1.131l-33.247-36.592v502.361H468.155z
			"/>
		<path fill="#86328C" d="M520.026,251.509h28.863v4.732h-23.828v15.145h23.624v4.729h-23.624v18.987h23.624v4.73h-28.659V251.509z"
			/>
		<path fill="#86328C" d="M581.575,250.294c7.626,0,14.012,2.443,19.15,7.326c5.141,4.883,7.711,10.896,7.711,18.034
			c0,7.076-2.566,13.077-7.691,18.004c-5.13,4.929-11.382,7.392-18.76,7.392c-7.469,0-13.773-2.451-18.912-7.36
			c-5.14-4.906-7.709-10.84-7.709-17.804c0-4.646,1.172-8.947,3.511-12.912c2.342-3.962,5.535-7.066,9.577-9.312
			C572.496,251.417,576.869,250.294,581.575,250.294z M581.797,254.992c-3.729,0-7.262,0.933-10.598,2.795
			c-3.338,1.864-5.945,4.373-7.819,7.529c-1.875,3.153-2.813,6.673-2.813,10.553c0,5.741,2.075,10.593,6.224,14.55
			c4.149,3.955,9.151,5.933,15.006,5.933c3.909,0,7.527-0.908,10.853-2.728c3.328-1.82,5.921-4.308,7.784-7.466
			c1.866-3.154,2.798-6.662,2.798-10.519c0-3.834-0.932-7.307-2.798-10.408c-1.863-3.099-4.485-5.58-7.868-7.444
			C589.18,255.925,585.592,254.992,581.797,254.992z"/>
		<path fill="#86328C" d="M618.567,299.833v-48.324h1.098l33.519,37.045V0h4.967v299.833h-1.13l-33.249-36.592v36.592H618.567z"/>
	</g>
	<g>
		<path fill="#ED1C24" d="M482.234,405.657h-4.023v-21.62h4.023v8.798h416.118v4.024H482.234V405.657z"/>
		<path fill="#ED1C24" d="M477.173,359.56c0-5.975,2.079-10.978,6.236-15.003c4.156-4.026,9.27-6.039,15.349-6.039
			c6.02,0,11.126,2.008,15.32,6.025c4.194,4.016,6.29,8.914,6.29,14.694c0,5.854-2.087,10.792-6.264,14.816
			c-4.174,4.026-9.225,6.041-15.152,6.041c-3.949,0-7.613-0.917-10.986-2.75c-3.374-1.836-6.016-4.337-7.928-7.504
			C478.129,366.673,477.173,363.248,477.173,359.56z M481.172,359.386c0,2.919,0.793,5.688,2.377,8.302
			c1.587,2.615,3.722,4.658,6.406,6.126c2.688,1.469,5.683,2.203,8.983,2.203c4.888,0,9.017-1.628,12.379-4.876
			c3.37-3.251,5.051-7.17,5.051-11.755c0-3.062-0.772-5.896-2.32-8.504c-1.549-2.604-3.667-4.639-6.353-6.097
			c-2.684-1.461-5.668-2.19-8.952-2.19c-3.263,0-6.218,0.729-8.854,2.19c-2.642,1.458-4.754,3.513-6.341,6.166
			C481.965,353.601,481.172,356.413,481.172,359.386z"/>
	</g>
	<path fill="#FFF200" d="M526.986,341.474h4.474v44.019h-4.474V341.474z"/>
	<path fill="#FFF200" d="M537.27,345.679v-4.205h24.52v4.205h-9.979v416.925h-4.564V345.679H537.27z"/>
	<path fill="#FFF200" d="M565.994,377.492l3.803-2.188c2.675,4.729,5.769,7.095,9.277,7.095c1.503,0,2.914-0.337,4.231-1.007
		c1.317-0.671,2.322-1.569,3.008-2.699c0.69-1.131,1.036-2.325,1.036-3.591c0-1.441-0.508-2.85-1.52-4.234
		c-1.399-1.905-3.955-4.204-7.666-6.889c-3.732-2.702-6.058-4.658-6.971-5.867c-1.578-2.023-2.371-4.212-2.371-6.568
		c0-1.866,0.467-3.571,1.4-5.105c0.929-1.537,2.246-2.749,3.938-3.637c1.695-0.884,3.534-1.327,5.522-1.327
		c2.109,0,4.082,0.5,5.916,1.504c1.84,1.003,3.781,2.846,5.826,5.53l-3.648,2.657c-1.687-2.142-3.121-3.553-4.306-4.231
		c-1.187-0.684-2.48-1.021-3.879-1.021c-1.804,0-3.284,0.525-4.429,1.574c-1.146,1.051-1.717,2.347-1.717,3.881
		c0,0.936,0.204,1.841,0.608,2.719c0.407,0.873,1.145,1.828,2.221,2.86c0.589,0.545,2.514,1.974,5.783,4.291
		c3.872,2.741,6.53,5.185,7.966,7.325c1.442,2.14,2.162,4.289,2.162,6.451c0,3.112-1.23,5.817-3.697,8.116
		c-2.463,2.293-5.459,3.443-8.989,3.443c-2.719,0-5.18-0.697-7.395-2.086C569.898,383.094,567.856,380.762,565.994,377.492z"/>
	<g>
		<path fill="#24ECC2" d="M600.343,403.709v3.654h-13.448l13.448,14.326v4.812l-16.08-17.213l-19.759,18.553v-4.77l16.693-15.708
			h-581.3v-3.654H600.343z"/>
		<path fill="#24ECC2" d="M564.504,433.212h35.839v0.78l-27.473,23.853h27.473v3.533h-35.839v-0.805l27.138-23.658h-27.138V433.212z
			"/>
		<path fill="#24ECC2" d="M600.343,470.125v20.539h-3.509v-16.956h-11.231v16.81h-3.508v-16.81h-14.083v16.81h-3.508v-20.393
			H600.343z"/>
		<path fill="#24ECC2" d="M600.343,496.877v20.538h-3.509v-16.956h-11.231v16.809h-3.508v-16.809h-14.083v16.809h-3.508v-20.391
			H600.343z"/>
		<path fill="#24ECC2" d="M571.18,519.898l1.826,3.045c-3.946,2.145-5.919,4.621-5.919,7.432c0,1.201,0.28,2.331,0.841,3.386
			s1.311,1.86,2.253,2.413c0.941,0.552,1.941,0.829,2.996,0.829c1.201,0,2.379-0.407,3.534-1.22c1.592-1.12,3.507-3.168,5.75-6.14
			c2.257-2.987,3.889-4.848,4.896-5.578c1.69-1.269,3.517-1.902,5.483-1.902c1.558,0,2.979,0.375,4.263,1.122
			c1.283,0.748,2.293,1.8,3.033,3.154c0.739,1.356,1.107,2.831,1.107,4.423c0,1.689-0.417,3.268-1.253,4.738
			c-0.837,1.469-2.376,3.025-4.617,4.666l-2.217-2.923c1.787-1.351,2.964-2.498,3.532-3.448c0.567-0.95,0.854-1.985,0.854-3.106
			c0-1.445-0.439-2.628-1.317-3.545c-0.877-0.918-1.957-1.377-3.238-1.377c-0.781,0-1.536,0.162-2.268,0.488
			c-0.73,0.323-1.526,0.917-2.386,1.776c-0.456,0.474-1.65,2.014-3.583,4.629c-2.289,3.104-4.329,5.231-6.116,6.385
			c-1.786,1.153-3.58,1.73-5.384,1.73c-2.599,0-4.856-0.986-6.771-2.961c-1.919-1.974-2.876-4.374-2.876-7.199
			c0-2.177,0.581-4.15,1.741-5.92C566.506,523.026,568.452,521.394,571.18,519.898z"/>
	</g>
</g>
</svg>
