<?xml version="1.0" encoding="utf-8"?>
<!-- Generator: Adobe Illustrator 13.0.0, SVG Export Plug-In . SVG Version: 6.00 Build 14948)  -->
<svg version="1.2" baseProfile="tiny" id="Layer_1" xmlns="http://www.w3.org/2000/svg" xmlns:xlink="http://www.w3.org/1999/xlink"
	 x="0px" y="0px" width="320.525px" height="506.413px" viewBox="0 0 320.525 506.413" xml:space="preserve">
<path fill="none" stroke="#000000" d="M231.801,132.888l-12.293-38.143l-3.125-1.875l-14.125,7.75c0,0,6.875,20.625,9.5,32.75
	s9.125,6.375,9.125,6.375l30.25-19c0,0,0.75-3.25,0.75-3.875c7.5-14.5-7.5-43.75-7.5-43.75v-5.125L224.487,0.141l-0.021,45.813
	L205.3,43.12c-41-20.333-41.416,14.084-42.333,13.167s-8.167,8.5-8.167,8.5l-14.917-41.083l0.417,46.583"/>
<path fill="none" stroke="#000000" d="M251.823,117.399l-9.315,4.221c0,0-23.125-8.875-13.5-44.25l-9.5,17.375"/>
<path fill="none" stroke="#000000" d="M249.559,85.388c0,0-6.301-12.393-10.926-12.393l-9.625,4.375"/>
<line fill="none" stroke="#000000" x1="229.221" y1="124.882" x2="239.911" y2="120.247"/>
<line fill="none" stroke="#000000" x1="228.493" y1="122.625" x2="237.747" y2="118.724"/>
<polygon fill="none" stroke="#000000" points="228.383,130.245 216.258,95.87 205.633,102.12 216.633,135.87 "/>
<line fill="none" stroke="#000000" x1="216.19" y1="134.514" x2="226.501" y2="124.909"/>
<line fill="none" stroke="#000000" x1="214.157" y1="128.275" x2="224.535" y2="117.897"/>
<polyline fill="none" stroke="#000000" points="208.883,103.495 209.258,107.245 217.955,100.683 "/>
<polyline fill="none" stroke="#000000" points="211.771,105.348 212.133,113.37 219.847,106.045 "/>
<polyline fill="none" stroke="#000000" points="213.033,112.515 214.258,119.995 222.084,112.387 "/>
<line fill="none" stroke="#000000" x1="214.896" y1="119.375" x2="214.973" y2="127.46"/>
<polyline fill="none" stroke="#000000" points="216.883,127.87 216.473,125.96 216.949,133.807 "/>
<polygon fill="none" stroke="#000000" points="203.383,107.12 198.883,110.12 177.383,110.12 164.758,123.745 164.008,121.495 
	176.508,108.62 "/>
<polyline fill="none" stroke="#000000" points="203.383,107.12 211.133,135.245 198.133,148.245 192.508,150.62 183.133,150.745 
	169.508,138.245 164.758,123.745 "/>
<polyline fill="none" stroke="#000000" points="176.133,112.87 189.758,145.62 186.014,150.707 "/>
<line fill="none" stroke="#000000" x1="189.758" y1="145.62" x2="200.133" y2="146.245"/>
<path fill="none" stroke="#000000" d="M160.3,109.37c0,0,0.5,7.583,6.667,4.583s7.167-4.167,7.167-4.167l-1-1.833L160.3,109.37z"/>
<path fill="none" stroke="#000000" d="M186.217,103.954l14.667-9.25c0,0,4.25,5.583-4.167,10L186.217,103.954z"/>
<path fill="none" stroke="#000000" d="M174.633,96.787l5.127-21.512L174.633,96.787z"/>
<polyline fill="none" stroke="#000000" points="172.133,62.454 169.633,59.953 161.966,63.954 164.466,66.454 "/>
<polyline fill="none" stroke="#000000" points="161.966,63.954 160.3,86.787 172.133,98.954 174.633,96.787 "/>
<path fill="none" stroke="#000000" d="M160.3,86.787c0,0-9.834,13.167-7.917,21.833c0,0,33.75,0.5,61-23.5
	c-4.583-10.167-33.417-9.5-33.417-9.5l-7.833-13.167l-7.667,4l-0.833,17.833l10,12h1.119"/>
<path fill="none" stroke="#000000" d="M155.633,115.12l-24.167-42.667l22-3.833c0,0-8.75,23.5-3.083,35"/>
<line fill="none" stroke="#000000" x1="139.267" y1="71.094" x2="148.633" y2="89.454"/>
<path fill="none" stroke="#000000" d="M157.133,61.867c0,0-3.966,21.237,0.434,29.079"/>
<path fill="none" stroke="#000000" d="M153.466,68.62c0,0-2.154,20.917,2.363,25.435"/>
<path fill="none" stroke="#000000" d="M172.3,61.12c0,0-2.328-24.729,19.586-23.198"/>
<polyline fill="none" stroke="#000000" points="179.396,74.662 179.3,58.954 191.466,44.287 202.966,44.287 215.633,92.12 "/>
<path fill="none" stroke="#000000" d="M203.411,45.968c0,0-11.111,14.986-8.278,29.819"/>
<path fill="none" stroke="#000000" d="M204.373,49.601c0,0-9.252,10.234-5.496,27.627"/>
<path fill="none" stroke="#000000" d="M216.19,44.73l9.275,29.224c0,0-1.784,3.579,0,7.667"/>
<polyline fill="none" stroke="#000000" points="222.091,90.021 206.701,43.327 202.966,44.287 "/>
<path fill="none" stroke="#000000" d="M146.629,108.872l-0.746,12.999c0,0,6.625,17.5,10,16.5"/>
<polyline fill="none" stroke="#000000" points="131.466,72.454 130.466,73.287 151.133,118.787 161.883,115.62 171.258,148.245 
	161.508,149.745 150.633,121.495 "/>
<line fill="none" stroke="#000000" x1="151.133" y1="118.787" x2="151.133" y2="121.995"/>
<polygon fill="none" stroke="#000000" points="153.508,122.62 159.633,122.12 169.133,144.87 168.258,147.495 162.883,147.495 "/>
<line fill="none" stroke="#000000" x1="155.649" y1="128.302" x2="162.215" y2="128.302"/>
<line fill="none" stroke="#000000" x1="158.312" y1="135.366" x2="164.895" y2="134.72"/>
<line fill="none" stroke="#000000" x1="160.68" y1="141.649" x2="167.469" y2="140.886"/>
<line fill="none" stroke="#000000" x1="166.813" y1="139.315" x2="162.839" y2="134.922"/>
<line fill="none" stroke="#000000" x1="164.112" y1="132.847" x2="160.508" y2="128.302"/>
<polyline fill="none" stroke="#000000" points="161.601,126.832 159.508,124.495 154.364,124.894 "/>
<line fill="none" stroke="#000000" x1="168.933" y1="145.47" x2="165.739" y2="141.081"/>
<line fill="none" stroke="#000000" x1="164.248" y1="71.108" x2="174.979" y2="67.238"/>
<line fill="none" stroke="#000000" x1="163.916" y1="78.229" x2="178.258" y2="72.749"/>
<line fill="none" stroke="#000000" x1="164.627" y1="85.479" x2="178.543" y2="80.378"/>
<line fill="none" stroke="#000000" x1="169.832" y1="91.725" x2="176.499" y2="88.958"/>
<path fill="none" stroke="#000000" d="M236.335,74.04c0,0-5.827,32.956,12.923,41.831l2.625,1"/>
<path fill="none" stroke="#000000" d="M239.545,73.145c0,0-5.162,29.601,11.338,40.101c0,0,3.079-3.093,3.079-5.39"/>
<path fill="none" stroke="#000000" d="M238.994,77.967c0,0,15.96,15.972,8.676,32.75"/>
<path fill="none" stroke="#000000" d="M238.786,84.372c0,0,8.122,9.834,5.047,21.479"/>
<line fill="none" stroke="#000000" x1="143.133" y1="69.62" x2="139.929" y2="28.791"/>
<line fill="none" stroke="#000000" x1="228.633" y1="55.454" x2="224.487" y2="3.454"/>
<polyline fill="none" stroke="#000000" points="224.475,28.62 226.466,56.287 229.466,55.954 232.466,60.287 244.127,67.122 
	244.383,73.12 233.633,66.287 232.883,60.995 "/>
<polyline fill="none" stroke="#000000" points="226.466,56.287 226.82,72.558 230.736,76.584 "/>
<polyline fill="none" stroke="#000000" points="230.125,133.94 225.276,136.985 227.633,142.12 241.8,138.62 239.444,128.086 
	239.444,128.086 "/>
<line fill="none" stroke="#000000" x1="229.706" y1="134.203" x2="233.715" y2="140.618"/>
<line fill="none" stroke="#000000" x1="230.458" y1="135.407" x2="226.108" y2="138.798"/>
<line fill="none" stroke="#000000" x1="231.82" y1="137.586" x2="227.21" y2="141.199"/>
<line fill="none" stroke="#000000" x1="233.67" y1="131.713" x2="237.562" y2="139.667"/>
<line fill="none" stroke="#000000" x1="236.168" y1="140.011" x2="231.216" y2="145.787"/>
<polyline fill="none" stroke="#000000" points="227.633,142.12 229.05,146.12 245.883,146.12 247.466,142.12 239.775,139.12 
	234.133,145.787 "/>
<polyline fill="none" stroke="#000000" points="228.926,145.771 221.966,141.87 214.383,147.12 229.05,146.12 "/>
<polyline fill="none" stroke="#000000" points="221.966,141.87 216.466,141.954 210.05,147.787 214.383,147.12 "/>
<polyline fill="none" stroke="#000000" points="216.8,141.949 207.3,142.454 201.258,148.496 210.05,147.787 "/>
<line fill="none" stroke="#000000" x1="205.959" y1="148.117" x2="211.796" y2="142.215"/>
<path fill="none" stroke="#000000" d="M201.258,148.496"/>
<polyline fill="none" stroke="#000000" points="155.505,138.404 160.466,152.204 161.924,153.662 172.8,150.787 170.02,138.714 "/>
<polygon fill="none" stroke="#000000" points="164.633,154.454 178.716,149.204 179.716,152.954 163.883,156.037 "/>
<polyline fill="none" stroke="#000000" points="228.762,56.032 228.762,71.745 232.133,73.995 238.633,72.995 "/>
<path fill="none" stroke="#000000" d="M241.394,157.613l-57.261,4.007c0,0-9.166,21.667-7.833,61.667"/>
<path fill="none" stroke="#000000" d="M110.3,196.787l9.166-13.5c0,0,1.5-9.667,31.5-15.667s29.333-5.333,29.333-5.333
	l-0.277,13.714"/>
<line fill="none" stroke="#000000" x1="184.487" y1="152.248" x2="179.592" y2="178.079"/>
<path fill="none" stroke="#000000" d="M118.633,202.787c0,0,6.166-21.167,9.833-20l-5.008-4.677"/>
<path fill="none" stroke="#000000" d="M173.3,169.954c0,0-44.834,10.354-44.834,12.833"/>
<path fill="none" stroke="#000000" d="M168.3,230.12"/>
<polyline fill="none" stroke="#000000" points="168.8,229.62 168.3,230.12 172.667,170.101 "/>
<path fill="none" stroke="#000000" d="M185.466,216.62c0,0,0.168-45.833,3.834-47.167s23.186-5.653,49.843-5.653"/>
<path fill="none" stroke="#000000" d="M208.133,213.287l5.667-2.167h14.166l11.834,7.5l7-7l-14.167-12.667H230.8l-16.334,1.5
	l-11.666,9l-9.5,3.333c-6.833,0-24.834,21.667-24.834,21.667l21.167,13.667"/>
<path fill="none" stroke="#000000" d="M213.8,211.12l1.166,6.333l11-3.333l13,8.667c0,0,6.166,0.333,8-3.5l-0.166-7.667"/>
<polyline fill="none" stroke="#000000" points="220.373,215.815 232.3,220.62 233.466,227.954 228.966,229.454 "/>
<path fill="none" stroke="#000000" d="M178.8,241.62l0.333-7.167c0,0,12.667-23,16-21.667"/>
<path fill="none" stroke="#000000" d="M189.966,247.453c0,0-3.334-20.666,0-24s11.5-10.833,11.5-10.833l0.732-2.956"/>
<polyline fill="none" stroke="#000000" points="201.466,212.62 219.8,221.287 230.966,236.12 224.3,243.12 212.8,231.62 
	198.633,225.12 190.8,230.12 190.133,232.954 199.966,230.287 210.466,235.454 219.966,244.954 219.966,250.62 216.466,252.62 
	214.133,252.787 202.3,243.12 196.8,240.454 189.266,242.31 189.659,245.376 201.966,245.376 213.133,257.953 209.716,261.37 
	189.633,248.12 189.766,246.125 "/>
<polyline fill="none" stroke="#000000" points="197.043,253.009 198.633,250.62 196.3,249.787 197.55,248.537 200.133,248.12 
	201.967,249.954 198.592,251.37 "/>
<line fill="none" stroke="#000000" x1="202.055" y1="245.477" x2="200.133" y2="248.12"/>
<line fill="none" stroke="#000000" x1="203.526" y1="244.122" x2="206.914" y2="240.734"/>
<line fill="none" stroke="#000000" x1="212.633" y1="230.454" x2="215.8" y2="227.12"/>
<line fill="none" stroke="#000000" x1="212.906" y1="211.462" x2="214.633" y2="204.954"/>
<line fill="none" stroke="#000000" x1="225.966" y1="210.454" x2="225.966" y2="204.787"/>
<line fill="none" stroke="#000000" x1="228.8" y1="210.454" x2="228.8" y2="205.62"/>
<polygon fill="none" stroke="#000000" points="226.3,203.12 231.8,207.12 234.8,203.12 230.093,199.019 "/>
<polygon fill="none" stroke="#000000" points="218.467,203.787 220.383,201.87 215.467,201.12 214.633,203.454 "/>
<polygon fill="none" stroke="#000000" points="218.467,227.62 218.77,226.84 219.633,224.62 214.967,222.12 213.467,225.454 "/>
<polygon fill="none" stroke="#000000" points="197.467,217.953 202.633,219.62 203.8,216.287 199.126,214.78 "/>
<polygon fill="none" stroke="#000000" points="210.133,242.12 211.633,240.62 208.3,238.12 206.55,239.87 "/>
<polygon fill="none" stroke="#000000" points="201.633,236.954 202.8,234.454 197.3,232.954 195.883,234.37 "/>
<line fill="none" stroke="#000000" x1="206.331" y1="241.317" x2="207.305" y2="240.344"/>
<line fill="none" stroke="#000000" x1="214.83" y1="228.141" x2="215.8" y2="226.464"/>
<line fill="none" stroke="#000000" x1="214.333" y1="206.084" x2="215.3" y2="203.454"/>
<polyline fill="none" stroke="#000000" points="211.3,235.454 211.886,231.201 213.611,229.424 "/>
<polyline fill="none" stroke="#000000" points="199.966,230.287 198.633,225.12 198.3,218.787 "/>
<polyline fill="none" stroke="#000000" points="197.8,245.376 197.679,240.88 199.633,236.954 199.633,236.055 "/>
<line fill="none" stroke="#000000" x1="214.133" y1="252.787" x2="210.386" y2="254.859"/>
<line fill="none" stroke="#000000" x1="224.3" y1="243.12" x2="219.467" y2="243.12"/>
<path fill="none" stroke="#000000" d="M101.8,191.12l117.083,76.75l14,22.75l1.5,3.5l-23.5,47.25l-7.25,2.25l-148.25-80.75
	l16.25-40.75l13-22L101.8,191.12l12.333-14.667c0,0,7.666-10.667,20.333-12.667s48.834-11.333,48.834-11.333
	s60.666-10.667,62.583-6.333c0,0-14.084,33.833-15.917,52"/>
<polyline fill="none" stroke="#000000" points="121.276,203.888 104.633,213.62 78.178,275.286 93.178,283.456 119.383,221.12 
	133.465,211.877 "/>
<line fill="none" stroke="#000000" x1="84.633" y1="200.12" x2="233.556" y2="292.189"/>
<polyline fill="none" stroke="#000000" points="62.106,246.01 109.383,273.62 109.383,281.62 213.622,335.862 "/>
<polyline fill="none" stroke="#000000" points="226.333,310.306 247.3,295.953 229.3,284.797 "/>
<polyline fill="none" stroke="#000000" points="247.3,295.953 255.633,310.62 212.393,338.335 "/>
<path fill="none" stroke="#000000" d="M220.269,333.287c0,0,22.19,4.981,26.277-16.843"/>
<polyline fill="none" stroke="#000000" points="220.236,270.069 257.633,293.287 263.633,310.62 312.633,256.953 294.966,242.62 
	243.633,224.954 213.029,264.033 "/>
<line fill="none" stroke="#000000" x1="257.633" y1="293.287" x2="296.26" y2="243.67"/>
<polyline fill="none" stroke="#000000" points="275.533,297.587 301.3,315.953 319.883,266.62 308.021,262.004 "/>
<polyline fill="none" stroke="#000000" points="269.334,304.376 294.633,321.953 301.3,315.953 "/>
<polyline fill="none" stroke="#000000" points="319.883,263.953 319.883,254.287 309.633,240.62 248.633,216.62 "/>
<polyline fill="none" stroke="#000000" points="309.633,240.62 319.883,202.287 319.883,140.62 256.3,130.954 245.883,146.12 "/>
<polyline fill="none" stroke="#000000" points="271.633,133.285 266.3,153.62 261.633,156.954 254.3,191.954 252.3,214.287 "/>
<polyline fill="none" stroke="#000000" points="290.341,233.03 296.966,203.954 300.467,200.453 307.966,167.287 304.966,164.287 
	311.345,139.322 315.966,139.322 309.633,162.287 312.466,165.12 304.966,207.287 299.966,209.287 294.66,234.729 "/>
<polyline fill="none" stroke="#000000" points="117.601,172.612 117.966,147.287 60.299,171.954 "/>
<polyline fill="none" stroke="#000000" points="255.633,310.62 260.883,315.87 263.633,310.62 "/>
<polyline fill="none" stroke="#000000" points="73.938,272.978 69.214,277.702 75.633,324.62 76.09,324.473 76.49,324.344 
	134.106,305.75 157.9,318.71 113.633,334.12 76.299,325.287 "/>
<path fill="none" stroke="#000000" d="M92.753,195.863l-1.12-7.743l-26.963-9.037L44.336,156.75l-7.037,4.871v10.5l12.833,11.333
	l4.167,8.167l-5.333,2.5l-12.667-2l-9.667-5.167c0,0-4.167-12.334-12.167-15.667l-0.333,5.833l9.833,12.5l2.448-2.406"/>
<polyline fill="none" stroke="#000000" points="14.466,171.287 6.466,174.454 6.133,180.454 14.133,177.12 "/>
<polyline fill="none" stroke="#000000" points="4.966,178.62 0.633,178.954 2.133,184.787 7.633,183.62 6.133,179.12 "/>
<path fill="none" stroke="#000000" d="M70.785,224.247l-10.318,10.04c-29,1.667-32.5-9.667-32.5-9.667l-8.167-1.667L0.883,193.62
	v-1.25l2.917-2.917l6.833,9.167l6.125,7.75c0,2.125,20.058,12.298,20.058,12.298"/>
<line fill="none" stroke="#000000" x1="60.466" y1="234.287" x2="66.371" y2="235.315"/>
<line fill="none" stroke="#000000" x1="3.799" y1="189.454" x2="2.133" y2="184.787"/>
<polyline fill="none" stroke="#000000" points="7.633,183.62 16.466,193.954 17.966,195.12 20.103,194.127 "/>
<polyline fill="none" stroke="#000000" points="36.142,192.036 33.977,197.37 23.966,189.62 21.966,192.954 "/>
<polyline fill="none" stroke="#000000" points="50.472,184.119 53.633,181.954 62.383,188.454 62.216,194.287 "/>
<polyline fill="none" stroke="#000000" points="62.383,188.454 64.102,180.828 64.489,179.027 "/>
<polyline fill="none" stroke="#000000" points="53.633,181.954 55.383,175.87 52.633,171.204 53.925,169.912 57.508,173.495 
	55.8,175.203 "/>
<line fill="none" stroke="#000000" x1="41.299" y1="170.954" x2="40.774" y2="159.086"/>
<line fill="none" stroke="#000000" x1="41.277" y1="170.458" x2="53.81" y2="181.338"/>
<line fill="none" stroke="#000000" x1="61.426" y1="171.472" x2="58.864" y2="172.706"/>
<polygon fill="none" stroke="#000000" points="18.466,193.12 19.966,191.62 23.8,194.787 22.8,195.787 "/>
<polyline fill="none" stroke="#000000" points="27.799,203.787 29.133,200.62 31.133,202.454 30.466,204.787 24.966,203.787 
	17.966,197.62 17.966,195.12 "/>
<polyline fill="none" stroke="#000000" points="33.966,198.287 33.977,197.37 47.32,198.714 48.878,194.209 "/>
<line fill="none" stroke="#000000" x1="31.716" y1="201.87" x2="33.977" y2="197.37"/>
<polyline fill="none" stroke="#000000" points="30.466,204.787 42.215,207.37 43.716,205.87 47.133,205.87 46.299,208.954 
	42.508,207.579 "/>
<path fill="none" stroke="#000000" d="M45.924,205.87l1.547-7.005l3.661,2.338l-4.667,8.125c0,0-14.278,15.152-18.292,14.833"/>
<path fill="none" stroke="#000000" d="M31.535,228.874c0,0,18.67-12.547,25.598-31.504"/>
<line fill="none" stroke="#000000" x1="82.027" y1="204.529" x2="50.067" y2="193.604"/>
<line fill="none" stroke="#000000" x1="83.826" y1="201.484" x2="54.299" y2="191.62"/>
<path fill="none" stroke="#000000" d="M32.836,221.897c0,0-20.08-9.865-21.903-12.693"/>
<line fill="none" stroke="#000000" x1="26.723" y1="213.28" x2="35.316" y2="205.853"/>
<polyline fill="none" stroke="#000000" points="29.161,211.173 26.508,207.745 27.633,206.62 30.783,209.771 "/>
<line fill="none" stroke="#000000" x1="23.286" y1="216.996" x2="19.293" y2="222.169"/>
<line fill="none" stroke="#000000" x1="13.348" y1="199.905" x2="17.248" y2="194.562"/>
<line fill="none" stroke="#000000" x1="14.883" y1="202.87" x2="18.581" y2="198.162"/>
<line fill="none" stroke="#000000" x1="9.769" y1="207.399" x2="14.494" y2="203.506"/>
<line fill="none" stroke="#000000" x1="22.219" y1="216.423" x2="27.133" y2="212.87"/>
<polyline fill="none" stroke="#000000" points="117.966,147.287 136.633,153.954 144.3,154.704 147.466,153.204 155.383,153.287 
	163.633,156.287 "/>
<polyline fill="none" stroke="#000000" points="123.549,167.97 130.8,157.704 138.05,161.287 145.55,155.87 151.383,159.704 "/>
<polyline fill="none" stroke="#000000" points="100.602,154.714 100.966,168.37 104.466,169.12 104.883,187.454 "/>
<polyline fill="none" stroke="#000000" points="77.302,164.681 77.716,173.954 74.383,176.37 74.417,182.35 "/>
<polyline fill="none" stroke="#000000" points="73.318,166.385 73.299,172.37 70.466,174.037 70.001,180.87 "/>
<path fill="none" stroke="#000000" d="M153.424,330.62"/>
<polyline fill="none" stroke="#000000" points="153.424,330.62 187.145,334.64 191.823,337.188 193.383,352.12 228.633,350.37 
	233.158,332.691 "/>
<polyline fill="none" stroke="#000000" points="248.383,318.37 253.079,312.257 258.383,313.37 245.133,351.12 228.633,350.37 "/>
<polyline fill="none" stroke="#000000" points="245.133,351.12 274.883,369.37 294.633,321.953 "/>
<polyline fill="none" stroke="#000000" points="274.883,369.37 270.633,373.12 241.133,358.62 232.883,355.87 205.883,361.12 "/>
<polyline fill="none" stroke="#000000" points="196.008,354.745 196.633,396.87 207.133,396.87 204.365,354.289 "/>
<polyline fill="none" stroke="#000000" points="207.133,396.87 238.883,393.87 241.133,358.62 "/>
<polyline fill="none" stroke="#000000" points="270.633,373.12 266.133,399.62 238.883,393.87 "/>
<polyline fill="none" stroke="#000000" points="149.96,332.647 153.883,397.87 164.883,397.12 160.984,331.521 "/>
<polyline fill="none" stroke="#000000" points="164.883,397.12 171.133,394.12 164.383,333.12 "/>
<polyline fill="none" stroke="#000000" points="194.633,386.37 169.59,380.18 174.383,375.12 196.354,378.109 "/>
<polyline fill="none" stroke="#000000" points="196.284,373.356 169.633,368.62 174.883,362.62 196.177,366.116 "/>
<polyline fill="none" stroke="#000000" points="194.633,358.62 166.682,353.893 173.133,348.87 193.383,352.12 196.008,354.745 
	244.133,352.12 "/>
<polyline fill="none" stroke="#000000" points="191.383,346.87 166.633,342.62 172.258,336.995 190.883,339.87 "/>
<line fill="none" stroke="#000000" x1="196.091" y1="360.355" x2="167.098" y2="357.651"/>
<line fill="none" stroke="#000000" x1="165.686" y1="344.892" x2="192.931" y2="347.787"/>
<line fill="none" stroke="#000000" x1="169.894" y1="382.924" x2="196.507" y2="388.361"/>
<line fill="none" stroke="#000000" x1="168.51" y1="370.411" x2="196.336" y2="376.867"/>
<polygon fill="none" stroke="#000000" points="133.383,366.12 133.383,370.12 151.521,358.597 151.341,355.607 "/>
<polygon fill="none" stroke="#000000" points="134.633,379.87 134.633,383.62 152.377,372.841 152.167,369.338 "/>
<polygon fill="none" stroke="#000000" points="134.633,393.12 135.383,396.12 153.082,384.563 152.933,382.072 "/>
<polyline fill="none" stroke="#000000" points="137.754,391.235 139.133,385.37 152.664,377.604 151.778,362.876 136.633,372.37 
	137.785,367.323 151.521,358.597 151.011,350.112 138.133,357.87 137.372,351.694 150.618,343.591 134.633,353.37 134.633,349.87 
	150.482,341.334 "/>
<polyline fill="none" stroke="#000000" points="150.214,336.865 138.633,342.87 136.883,347.62 "/>
<line fill="none" stroke="#000000" x1="138.133" y1="357.87" x2="134.858" y2="365.256"/>
<line fill="none" stroke="#000000" x1="136.633" y1="372.37" x2="135.552" y2="379.318"/>
<line fill="none" stroke="#000000" x1="139.133" y1="385.37" x2="138.847" y2="381.061"/>
<path fill="none" stroke="#000000" d="M119.883,411.12"/>
<polyline fill="none" stroke="#000000" points="132.633,361.37 133.383,341.12 153.424,329.184 153.424,320.269 "/>
<polyline fill="none" stroke="#000000" points="124.164,362.654 127.633,403.37 135.883,401.62 133.383,362.12 116.133,363.12 
	114.893,333.682 "/>
<line fill="none" stroke="#000000" x1="139.883" y1="398.87" x2="153.883" y2="397.87"/>
<polyline fill="none" stroke="#000000" points="139.883,393.182 139.883,398.87 135.883,401.62 136.133,405.12 196.633,396.87 
	196.633,392.12 171.133,394.12 "/>
<polyline fill="none" stroke="#000000" points="127.633,403.37 127.883,407.12 136.133,405.12 "/>
<polyline fill="none" stroke="#000000" points="127.883,407.12 117.758,413.245 108.633,473.12 135.633,476.87 143.133,487.12 
	149.133,497.87 115.383,487.87 108.508,473.433 "/>
<path fill="none" stroke="#000000" d="M140.413,483.403l7.553-7.616l45.667-3.166l3.249,3.249l4.001,4.001
	c0,0-0.417,19.416,3.25,20.916l-0.5,4.167l-2.667,0.832c0,0-6.667-21.833-6-24.499l2.261-4.542"/>
<line fill="none" stroke="#000000" x1="194.966" y1="481.287" x2="142.319" y2="486.008"/>
<line fill="none" stroke="#000000" x1="156.633" y1="504.87" x2="146.104" y2="485.669"/>
<line fill="none" stroke="#000000" x1="154.383" y1="505.12" x2="149.133" y2="497.87"/>
<path fill="none" stroke="#000000" d="M197.633,505.786c0,0-6.341-24.169-4.504-24.334"/>
<path fill="none" stroke="#000000" d="M210.133,504.62l6.75-14.25l43-4.5l39.25-25.5l-18.5-54.75l-14.5-6l-20.812-4.392
	c0,0,11.562,83.892,19.312,85.892"/>
<polyline fill="none" stroke="#000000" points="296.855,453.63 259.114,469.625 239.633,466.87 201.633,479.12 "/>
<line fill="none" stroke="#000000" x1="259.633" y1="484.12" x2="259.114" y2="469.625"/>
<line fill="none" stroke="#000000" x1="216.883" y1="490.37" x2="200.883" y2="479.871"/>
<polygon fill="none" stroke="#000000" points="197.883,434.87 199.383,462.37 239.383,441.62 237.883,430.62 "/>
<polygon fill="none" stroke="#000000" points="197.883,427.37 237.133,421.37 235.383,403.37 195.133,410.12 "/>
<polygon fill="none" stroke="#000000" points="188.633,459.87 181.633,411.37 139.383,414.87 145.133,465.87 "/>
<polygon fill="none" stroke="#000000" points="135.883,462.62 133.133,441.87 119.133,441.87 116.383,454.12 "/>
<polygon fill="none" stroke="#000000" points="134.133,434.87 132.883,418.87 118.633,421.62 118.633,434.12 "/>
</svg>
